<mxfile host="app.diagrams.net" agent="Mozilla/5.0 (Windows NT 10.0; Win64; x64) AppleWebKit/537.36 (KHTML, like Gecko) Chrome/131.0.0.0 Safari/537.36" version="26.1.3">
  <diagram name="Page-1" id="0783ab3e-0a74-02c8-0abd-f7b4e66b4bec">
    <mxGraphModel dx="4947" dy="2474" grid="1" gridSize="10" guides="1" tooltips="1" connect="1" arrows="1" fold="1" page="1" pageScale="1" pageWidth="850" pageHeight="1100" background="none" math="0" shadow="0">
      <root>
        <mxCell id="0" />
        <mxCell id="1" parent="0" />
        <mxCell id="1c1d494c118603dd-1" value="算法重启" style="swimlane;html=1;childLayout=stackLayout;startSize=20;rounded=0;shadow=0;comic=0;labelBackgroundColor=none;strokeWidth=1;fontFamily=Verdana;fontSize=12;align=center;" parent="1" vertex="1">
          <mxGeometry x="45" y="20" width="820" height="990" as="geometry" />
        </mxCell>
        <mxCell id="1c1d494c118603dd-2" value="算法" style="swimlane;html=1;startSize=20;" parent="1c1d494c118603dd-1" vertex="1">
          <mxGeometry y="20" width="320" height="970" as="geometry" />
        </mxCell>
        <mxCell id="PYUSAe0y5DwZYE7WgvPL-24" style="edgeStyle=orthogonalEdgeStyle;rounded=0;orthogonalLoop=1;jettySize=auto;html=1;exitX=0.5;exitY=1;exitDx=0;exitDy=0;" edge="1" parent="1c1d494c118603dd-2" source="60571a20871a0731-4">
          <mxGeometry relative="1" as="geometry">
            <mxPoint x="147" y="140.00000000000023" as="targetPoint" />
          </mxGeometry>
        </mxCell>
        <mxCell id="60571a20871a0731-4" value="启动" style="ellipse;whiteSpace=wrap;html=1;rounded=0;shadow=0;comic=0;labelBackgroundColor=none;strokeWidth=1;fontFamily=Verdana;fontSize=12;align=center;fillColor=#d5e8d4;strokeColor=#82b366;" parent="1c1d494c118603dd-2" vertex="1">
          <mxGeometry x="127" y="50" width="40" height="40" as="geometry" />
        </mxCell>
        <mxCell id="PYUSAe0y5DwZYE7WgvPL-77" style="edgeStyle=orthogonalEdgeStyle;rounded=0;orthogonalLoop=1;jettySize=auto;html=1;exitX=0.5;exitY=1;exitDx=0;exitDy=0;" edge="1" parent="1c1d494c118603dd-2" source="PYUSAe0y5DwZYE7WgvPL-32">
          <mxGeometry relative="1" as="geometry">
            <mxPoint x="151" y="360" as="targetPoint" />
          </mxGeometry>
        </mxCell>
        <mxCell id="PYUSAe0y5DwZYE7WgvPL-32" value="写入启动 信号" style="rounded=1;whiteSpace=wrap;html=1;shadow=0;comic=0;labelBackgroundColor=none;strokeWidth=1;fontFamily=Verdana;fontSize=12;align=center;arcSize=50;" vertex="1" parent="1c1d494c118603dd-2">
          <mxGeometry x="102" y="135" width="100" height="30" as="geometry" />
        </mxCell>
        <mxCell id="PYUSAe0y5DwZYE7WgvPL-93" style="edgeStyle=orthogonalEdgeStyle;rounded=0;orthogonalLoop=1;jettySize=auto;html=1;entryX=0.5;entryY=0;entryDx=0;entryDy=0;" edge="1" parent="1c1d494c118603dd-2" target="PYUSAe0y5DwZYE7WgvPL-67">
          <mxGeometry relative="1" as="geometry">
            <mxPoint x="151" y="460" as="sourcePoint" />
          </mxGeometry>
        </mxCell>
        <mxCell id="PYUSAe0y5DwZYE7WgvPL-50" value="LOOP" style="shape=umlFrame;whiteSpace=wrap;html=1;pointerEvents=0;" vertex="1" parent="1c1d494c118603dd-2">
          <mxGeometry x="48" y="360" width="224" height="100" as="geometry" />
        </mxCell>
        <mxCell id="PYUSAe0y5DwZYE7WgvPL-71" style="edgeStyle=orthogonalEdgeStyle;rounded=0;orthogonalLoop=1;jettySize=auto;html=1;exitX=0.5;exitY=1;exitDx=0;exitDy=0;entryX=0.5;entryY=0;entryDx=0;entryDy=0;" edge="1" parent="1c1d494c118603dd-2" source="PYUSAe0y5DwZYE7WgvPL-51" target="PYUSAe0y5DwZYE7WgvPL-59">
          <mxGeometry relative="1" as="geometry" />
        </mxCell>
        <mxCell id="PYUSAe0y5DwZYE7WgvPL-51" value="OHT状态加载" style="rounded=0;whiteSpace=wrap;html=1;shadow=0;comic=0;labelBackgroundColor=none;strokeWidth=1;fontFamily=Verdana;fontSize=12;align=center;arcSize=50;" vertex="1" parent="1c1d494c118603dd-2">
          <mxGeometry x="101" y="600" width="95" height="30" as="geometry" />
        </mxCell>
        <mxCell id="PYUSAe0y5DwZYE7WgvPL-76" style="edgeStyle=orthogonalEdgeStyle;rounded=0;orthogonalLoop=1;jettySize=auto;html=1;exitX=0.5;exitY=1;exitDx=0;exitDy=0;entryX=0.5;entryY=0;entryDx=0;entryDy=0;" edge="1" parent="1c1d494c118603dd-2" source="PYUSAe0y5DwZYE7WgvPL-59" target="PYUSAe0y5DwZYE7WgvPL-60">
          <mxGeometry relative="1" as="geometry" />
        </mxCell>
        <mxCell id="PYUSAe0y5DwZYE7WgvPL-59" value="TASK 状态加载" style="rounded=0;whiteSpace=wrap;html=1;shadow=0;comic=0;labelBackgroundColor=none;strokeWidth=1;fontFamily=Verdana;fontSize=12;align=center;arcSize=50;" vertex="1" parent="1c1d494c118603dd-2">
          <mxGeometry x="101" y="660" width="95" height="30" as="geometry" />
        </mxCell>
        <mxCell id="PYUSAe0y5DwZYE7WgvPL-75" style="edgeStyle=orthogonalEdgeStyle;rounded=0;orthogonalLoop=1;jettySize=auto;html=1;exitX=0.5;exitY=1;exitDx=0;exitDy=0;entryX=0.5;entryY=0;entryDx=0;entryDy=0;" edge="1" parent="1c1d494c118603dd-2" source="PYUSAe0y5DwZYE7WgvPL-60" target="PYUSAe0y5DwZYE7WgvPL-73">
          <mxGeometry relative="1" as="geometry" />
        </mxCell>
        <mxCell id="PYUSAe0y5DwZYE7WgvPL-60" value="OHT 与TASK绑定关系、状态重置" style="rounded=0;whiteSpace=wrap;html=1;shadow=0;comic=0;labelBackgroundColor=none;strokeWidth=1;fontFamily=Verdana;fontSize=12;align=center;arcSize=50;" vertex="1" parent="1c1d494c118603dd-2">
          <mxGeometry x="90.5" y="750" width="115" height="50" as="geometry" />
        </mxCell>
        <mxCell id="PYUSAe0y5DwZYE7WgvPL-70" style="edgeStyle=orthogonalEdgeStyle;rounded=0;orthogonalLoop=1;jettySize=auto;html=1;exitX=0.5;exitY=1;exitDx=0;exitDy=0;entryX=0.5;entryY=0;entryDx=0;entryDy=0;" edge="1" parent="1c1d494c118603dd-2" source="PYUSAe0y5DwZYE7WgvPL-67" target="PYUSAe0y5DwZYE7WgvPL-51">
          <mxGeometry relative="1" as="geometry" />
        </mxCell>
        <mxCell id="PYUSAe0y5DwZYE7WgvPL-67" value="清空写完静态数据信号" style="rounded=1;whiteSpace=wrap;html=1;shadow=0;comic=0;labelBackgroundColor=none;strokeWidth=1;fontFamily=Verdana;fontSize=12;align=center;arcSize=50;" vertex="1" parent="1c1d494c118603dd-2">
          <mxGeometry x="101.5" y="550" width="100" height="30" as="geometry" />
        </mxCell>
        <mxCell id="PYUSAe0y5DwZYE7WgvPL-73" value="正常流程" style="rounded=0;whiteSpace=wrap;html=1;shadow=0;comic=0;labelBackgroundColor=none;strokeWidth=1;fontFamily=Verdana;fontSize=12;align=center;arcSize=50;" vertex="1" parent="1c1d494c118603dd-2">
          <mxGeometry x="90.5" y="870" width="115" height="50" as="geometry" />
        </mxCell>
        <mxCell id="PYUSAe0y5DwZYE7WgvPL-79" value="检测中间层完成信号" style="text;html=1;align=center;verticalAlign=middle;resizable=0;points=[];autosize=1;strokeColor=none;fillColor=none;" vertex="1" parent="1c1d494c118603dd-2">
          <mxGeometry x="94" y="410" width="130" height="30" as="geometry" />
        </mxCell>
        <mxCell id="1c1d494c118603dd-3" value="中间层" style="swimlane;html=1;startSize=20;" parent="1c1d494c118603dd-1" vertex="1">
          <mxGeometry x="320" y="20" width="250" height="970" as="geometry" />
        </mxCell>
        <mxCell id="PYUSAe0y5DwZYE7WgvPL-95" style="edgeStyle=orthogonalEdgeStyle;rounded=0;orthogonalLoop=1;jettySize=auto;html=1;exitX=0.5;exitY=1;exitDx=0;exitDy=0;" edge="1" parent="1c1d494c118603dd-3" source="PYUSAe0y5DwZYE7WgvPL-25">
          <mxGeometry relative="1" as="geometry">
            <mxPoint x="125.05882352941171" y="670" as="targetPoint" />
          </mxGeometry>
        </mxCell>
        <mxCell id="PYUSAe0y5DwZYE7WgvPL-25" value="向redis写入数据" style="rounded=0;whiteSpace=wrap;html=1;shadow=0;comic=0;labelBackgroundColor=none;strokeWidth=1;fontFamily=Verdana;fontSize=12;align=center;arcSize=50;" vertex="1" parent="1c1d494c118603dd-3">
          <mxGeometry x="48.75" y="512" width="152.5" height="30" as="geometry" />
        </mxCell>
        <mxCell id="PYUSAe0y5DwZYE7WgvPL-28" value="写完静态数据信号" style="rounded=1;whiteSpace=wrap;html=1;shadow=0;comic=0;labelBackgroundColor=none;strokeWidth=1;fontFamily=Verdana;fontSize=12;align=center;arcSize=50;" vertex="1" parent="1c1d494c118603dd-3">
          <mxGeometry x="75" y="673" width="100" height="30" as="geometry" />
        </mxCell>
        <mxCell id="PYUSAe0y5DwZYE7WgvPL-89" style="edgeStyle=orthogonalEdgeStyle;rounded=0;orthogonalLoop=1;jettySize=auto;html=1;exitX=0.5;exitY=1;exitDx=0;exitDy=0;entryX=0.5;entryY=0;entryDx=0;entryDy=0;" edge="1" parent="1c1d494c118603dd-3" source="PYUSAe0y5DwZYE7WgvPL-64" target="PYUSAe0y5DwZYE7WgvPL-83">
          <mxGeometry relative="1" as="geometry" />
        </mxCell>
        <mxCell id="PYUSAe0y5DwZYE7WgvPL-64" value="清空启动 信号" style="rounded=1;whiteSpace=wrap;html=1;shadow=0;comic=0;labelBackgroundColor=none;strokeWidth=1;fontFamily=Verdana;fontSize=12;align=center;arcSize=50;" vertex="1" parent="1c1d494c118603dd-3">
          <mxGeometry x="75" y="170" width="100" height="30" as="geometry" />
        </mxCell>
        <mxCell id="PYUSAe0y5DwZYE7WgvPL-83" value="请求任务、OHT数据" style="rounded=0;whiteSpace=wrap;html=1;shadow=0;comic=0;labelBackgroundColor=none;strokeWidth=1;fontFamily=Verdana;fontSize=12;align=center;arcSize=50;" vertex="1" parent="1c1d494c118603dd-3">
          <mxGeometry x="78" y="240" width="95" height="30" as="geometry" />
        </mxCell>
        <mxCell id="PYUSAe0y5DwZYE7WgvPL-66" style="edgeStyle=orthogonalEdgeStyle;rounded=0;orthogonalLoop=1;jettySize=auto;html=1;exitX=1;exitY=0.5;exitDx=0;exitDy=0;entryX=0.5;entryY=0;entryDx=0;entryDy=0;" edge="1" parent="1c1d494c118603dd-1" source="PYUSAe0y5DwZYE7WgvPL-32" target="PYUSAe0y5DwZYE7WgvPL-64">
          <mxGeometry relative="1" as="geometry" />
        </mxCell>
        <mxCell id="PYUSAe0y5DwZYE7WgvPL-78" style="edgeStyle=orthogonalEdgeStyle;rounded=0;orthogonalLoop=1;jettySize=auto;html=1;exitX=0.5;exitY=1;exitDx=0;exitDy=0;" edge="1" parent="1c1d494c118603dd-1" source="PYUSAe0y5DwZYE7WgvPL-28" target="PYUSAe0y5DwZYE7WgvPL-50">
          <mxGeometry relative="1" as="geometry">
            <Array as="points">
              <mxPoint x="445" y="790" />
              <mxPoint x="355" y="790" />
              <mxPoint x="355" y="400" />
            </Array>
          </mxGeometry>
        </mxCell>
        <mxCell id="PYUSAe0y5DwZYE7WgvPL-90" style="edgeStyle=orthogonalEdgeStyle;rounded=0;orthogonalLoop=1;jettySize=auto;html=1;exitX=0.5;exitY=1;exitDx=0;exitDy=0;entryX=0.5;entryY=0;entryDx=0;entryDy=0;" edge="1" parent="1c1d494c118603dd-1" source="PYUSAe0y5DwZYE7WgvPL-83" target="PYUSAe0y5DwZYE7WgvPL-82">
          <mxGeometry relative="1" as="geometry" />
        </mxCell>
        <mxCell id="1c1d494c118603dd-4" value="MSTC" style="swimlane;html=1;startSize=20;" parent="1c1d494c118603dd-1" vertex="1">
          <mxGeometry x="570" y="20" width="250" height="970" as="geometry" />
        </mxCell>
        <mxCell id="PYUSAe0y5DwZYE7WgvPL-91" style="edgeStyle=orthogonalEdgeStyle;rounded=0;orthogonalLoop=1;jettySize=auto;html=1;exitX=0.5;exitY=1;exitDx=0;exitDy=0;entryX=0.5;entryY=0;entryDx=0;entryDy=0;" edge="1" parent="1c1d494c118603dd-4" source="PYUSAe0y5DwZYE7WgvPL-82" target="PYUSAe0y5DwZYE7WgvPL-87">
          <mxGeometry relative="1" as="geometry" />
        </mxCell>
        <mxCell id="PYUSAe0y5DwZYE7WgvPL-82" value="正在执行任务状态" style="rounded=0;whiteSpace=wrap;html=1;shadow=0;comic=0;labelBackgroundColor=none;strokeWidth=1;fontFamily=Verdana;fontSize=12;align=center;arcSize=50;" vertex="1" parent="1c1d494c118603dd-4">
          <mxGeometry x="77.5" y="310" width="112.5" height="30" as="geometry" />
        </mxCell>
        <mxCell id="PYUSAe0y5DwZYE7WgvPL-86" value="未执行任务状态" style="rounded=0;whiteSpace=wrap;html=1;shadow=0;comic=0;labelBackgroundColor=none;strokeWidth=1;fontFamily=Verdana;fontSize=12;align=center;arcSize=50;" vertex="1" parent="1c1d494c118603dd-4">
          <mxGeometry x="77.5" y="411" width="112.5" height="30" as="geometry" />
        </mxCell>
        <mxCell id="PYUSAe0y5DwZYE7WgvPL-92" style="edgeStyle=orthogonalEdgeStyle;rounded=0;orthogonalLoop=1;jettySize=auto;html=1;exitX=0.5;exitY=1;exitDx=0;exitDy=0;" edge="1" parent="1c1d494c118603dd-4" source="PYUSAe0y5DwZYE7WgvPL-87">
          <mxGeometry relative="1" as="geometry">
            <mxPoint x="133.88235294117658" y="410" as="targetPoint" />
          </mxGeometry>
        </mxCell>
        <mxCell id="PYUSAe0y5DwZYE7WgvPL-87" value="正在执行OHT状态" style="rounded=0;whiteSpace=wrap;html=1;shadow=0;comic=0;labelBackgroundColor=none;strokeWidth=1;fontFamily=Verdana;fontSize=12;align=center;arcSize=50;" vertex="1" parent="1c1d494c118603dd-4">
          <mxGeometry x="77.5" y="360" width="112.5" height="30" as="geometry" />
        </mxCell>
        <mxCell id="PYUSAe0y5DwZYE7WgvPL-94" style="edgeStyle=orthogonalEdgeStyle;rounded=0;orthogonalLoop=1;jettySize=auto;html=1;exitX=0.5;exitY=1;exitDx=0;exitDy=0;entryX=0.5;entryY=0;entryDx=0;entryDy=0;" edge="1" parent="1c1d494c118603dd-1" source="PYUSAe0y5DwZYE7WgvPL-86" target="PYUSAe0y5DwZYE7WgvPL-25">
          <mxGeometry relative="1" as="geometry" />
        </mxCell>
        <mxCell id="PYUSAe0y5DwZYE7WgvPL-2" style="edgeStyle=orthogonalEdgeStyle;rounded=0;orthogonalLoop=1;jettySize=auto;html=1;entryX=0;entryY=0.5;entryDx=0;entryDy=0;" edge="1" parent="1" source="PYUSAe0y5DwZYE7WgvPL-1" target="60571a20871a0731-4">
          <mxGeometry relative="1" as="geometry" />
        </mxCell>
        <mxCell id="PYUSAe0y5DwZYE7WgvPL-1" value="Actor" style="shape=umlActor;verticalLabelPosition=bottom;verticalAlign=top;html=1;" vertex="1" parent="1">
          <mxGeometry x="-20" y="80" width="30" height="60" as="geometry" />
        </mxCell>
        <mxCell id="PYUSAe0y5DwZYE7WgvPL-318" value="MSTC重启" style="swimlane;html=1;childLayout=stackLayout;startSize=20;rounded=0;shadow=0;comic=0;labelBackgroundColor=none;strokeWidth=1;fontFamily=Verdana;fontSize=12;align=center;" vertex="1" parent="1">
          <mxGeometry x="45" y="1800" width="820" height="510" as="geometry" />
        </mxCell>
        <mxCell id="PYUSAe0y5DwZYE7WgvPL-319" value="算法" style="swimlane;html=1;startSize=20;" vertex="1" parent="PYUSAe0y5DwZYE7WgvPL-318">
          <mxGeometry y="20" width="320" height="490" as="geometry" />
        </mxCell>
        <mxCell id="PYUSAe0y5DwZYE7WgvPL-370" style="edgeStyle=orthogonalEdgeStyle;rounded=0;orthogonalLoop=1;jettySize=auto;html=1;exitX=0.5;exitY=1;exitDx=0;exitDy=0;entryX=0.5;entryY=0;entryDx=0;entryDy=0;" edge="1" parent="PYUSAe0y5DwZYE7WgvPL-319" source="PYUSAe0y5DwZYE7WgvPL-360" target="PYUSAe0y5DwZYE7WgvPL-369">
          <mxGeometry relative="1" as="geometry" />
        </mxCell>
        <mxCell id="PYUSAe0y5DwZYE7WgvPL-360" value="启动" style="ellipse;whiteSpace=wrap;html=1;rounded=0;shadow=0;comic=0;labelBackgroundColor=none;strokeWidth=1;fontFamily=Verdana;fontSize=12;align=center;fillColor=#d5e8d4;strokeColor=#82b366;" vertex="1" parent="PYUSAe0y5DwZYE7WgvPL-319">
          <mxGeometry x="140.5" y="126" width="40" height="40" as="geometry" />
        </mxCell>
        <mxCell id="PYUSAe0y5DwZYE7WgvPL-369" value="算法重启流程" style="rounded=0;whiteSpace=wrap;html=1;shadow=0;comic=0;labelBackgroundColor=none;strokeWidth=1;fontFamily=Verdana;fontSize=12;align=center;arcSize=50;" vertex="1" parent="PYUSAe0y5DwZYE7WgvPL-319">
          <mxGeometry x="104.25" y="420" width="112.5" height="30" as="geometry" />
        </mxCell>
        <mxCell id="PYUSAe0y5DwZYE7WgvPL-336" value="中间层" style="swimlane;html=1;startSize=20;" vertex="1" parent="PYUSAe0y5DwZYE7WgvPL-318">
          <mxGeometry x="320" y="20" width="250" height="490" as="geometry" />
        </mxCell>
        <mxCell id="PYUSAe0y5DwZYE7WgvPL-372" style="edgeStyle=orthogonalEdgeStyle;rounded=0;orthogonalLoop=1;jettySize=auto;html=1;exitX=0.5;exitY=1;exitDx=0;exitDy=0;entryX=0.5;entryY=0;entryDx=0;entryDy=0;" edge="1" parent="PYUSAe0y5DwZYE7WgvPL-336" source="PYUSAe0y5DwZYE7WgvPL-359" target="PYUSAe0y5DwZYE7WgvPL-398">
          <mxGeometry relative="1" as="geometry">
            <mxPoint x="126.24999999999955" y="390" as="targetPoint" />
          </mxGeometry>
        </mxCell>
        <mxCell id="PYUSAe0y5DwZYE7WgvPL-359" value="启动" style="ellipse;whiteSpace=wrap;html=1;rounded=0;shadow=0;comic=0;labelBackgroundColor=none;strokeWidth=1;fontFamily=Verdana;fontSize=12;align=center;fillColor=#d5e8d4;strokeColor=#82b366;" vertex="1" parent="PYUSAe0y5DwZYE7WgvPL-336">
          <mxGeometry x="105" y="98" width="40" height="40" as="geometry" />
        </mxCell>
        <mxCell id="PYUSAe0y5DwZYE7WgvPL-398" value="中间层重启流程" style="rounded=0;whiteSpace=wrap;html=1;shadow=0;comic=0;labelBackgroundColor=none;strokeWidth=1;fontFamily=Verdana;fontSize=12;align=center;arcSize=50;" vertex="1" parent="PYUSAe0y5DwZYE7WgvPL-336">
          <mxGeometry x="68.75" y="340" width="112.5" height="30" as="geometry" />
        </mxCell>
        <mxCell id="PYUSAe0y5DwZYE7WgvPL-346" value="MSTC" style="swimlane;html=1;startSize=20;" vertex="1" parent="PYUSAe0y5DwZYE7WgvPL-318">
          <mxGeometry x="570" y="20" width="250" height="490" as="geometry" />
        </mxCell>
        <mxCell id="PYUSAe0y5DwZYE7WgvPL-364" style="edgeStyle=orthogonalEdgeStyle;rounded=0;orthogonalLoop=1;jettySize=auto;html=1;exitX=0.5;exitY=1;exitDx=0;exitDy=0;entryX=0.5;entryY=0;entryDx=0;entryDy=0;" edge="1" parent="PYUSAe0y5DwZYE7WgvPL-346" source="PYUSAe0y5DwZYE7WgvPL-321" target="PYUSAe0y5DwZYE7WgvPL-361">
          <mxGeometry relative="1" as="geometry" />
        </mxCell>
        <mxCell id="PYUSAe0y5DwZYE7WgvPL-321" value="启动" style="ellipse;whiteSpace=wrap;html=1;rounded=0;shadow=0;comic=0;labelBackgroundColor=none;strokeWidth=1;fontFamily=Verdana;fontSize=12;align=center;fillColor=#d5e8d4;strokeColor=#82b366;" vertex="1" parent="PYUSAe0y5DwZYE7WgvPL-346">
          <mxGeometry x="90" y="50" width="40" height="40" as="geometry" />
        </mxCell>
        <mxCell id="PYUSAe0y5DwZYE7WgvPL-365" style="edgeStyle=orthogonalEdgeStyle;rounded=0;orthogonalLoop=1;jettySize=auto;html=1;exitX=0.5;exitY=1;exitDx=0;exitDy=0;entryX=0.5;entryY=0;entryDx=0;entryDy=0;" edge="1" parent="PYUSAe0y5DwZYE7WgvPL-346" source="PYUSAe0y5DwZYE7WgvPL-361" target="PYUSAe0y5DwZYE7WgvPL-362">
          <mxGeometry relative="1" as="geometry" />
        </mxCell>
        <mxCell id="PYUSAe0y5DwZYE7WgvPL-361" value="MSTC准备数据完成" style="rounded=0;whiteSpace=wrap;html=1;shadow=0;comic=0;labelBackgroundColor=none;strokeWidth=1;fontFamily=Verdana;fontSize=12;align=center;arcSize=50;" vertex="1" parent="PYUSAe0y5DwZYE7WgvPL-346">
          <mxGeometry x="53.75" y="180" width="112.5" height="30" as="geometry" />
        </mxCell>
        <mxCell id="PYUSAe0y5DwZYE7WgvPL-362" value="启动成功" style="rounded=1;whiteSpace=wrap;html=1;shadow=0;comic=0;labelBackgroundColor=none;strokeWidth=1;fontFamily=Verdana;fontSize=12;align=center;arcSize=50;" vertex="1" parent="PYUSAe0y5DwZYE7WgvPL-346">
          <mxGeometry x="60" y="270" width="100" height="30" as="geometry" />
        </mxCell>
        <mxCell id="PYUSAe0y5DwZYE7WgvPL-376" style="edgeStyle=orthogonalEdgeStyle;rounded=0;orthogonalLoop=1;jettySize=auto;html=1;exitX=0.5;exitY=1;exitDx=0;exitDy=0;entryX=1;entryY=0.25;entryDx=0;entryDy=0;" edge="1" parent="PYUSAe0y5DwZYE7WgvPL-318" source="PYUSAe0y5DwZYE7WgvPL-362" target="PYUSAe0y5DwZYE7WgvPL-398">
          <mxGeometry relative="1" as="geometry">
            <mxPoint x="556.7760000000003" y="424.4000000000001" as="targetPoint" />
          </mxGeometry>
        </mxCell>
        <mxCell id="PYUSAe0y5DwZYE7WgvPL-399" style="edgeStyle=orthogonalEdgeStyle;rounded=0;orthogonalLoop=1;jettySize=auto;html=1;exitX=0.5;exitY=1;exitDx=0;exitDy=0;entryX=1;entryY=0.5;entryDx=0;entryDy=0;" edge="1" parent="PYUSAe0y5DwZYE7WgvPL-318" source="PYUSAe0y5DwZYE7WgvPL-398" target="PYUSAe0y5DwZYE7WgvPL-369">
          <mxGeometry relative="1" as="geometry" />
        </mxCell>
        <mxCell id="PYUSAe0y5DwZYE7WgvPL-407" style="edgeStyle=orthogonalEdgeStyle;rounded=0;orthogonalLoop=1;jettySize=auto;html=1;entryX=0;entryY=0.5;entryDx=0;entryDy=0;" edge="1" parent="1" source="PYUSAe0y5DwZYE7WgvPL-354" target="PYUSAe0y5DwZYE7WgvPL-321">
          <mxGeometry relative="1" as="geometry">
            <Array as="points">
              <mxPoint x="190" y="1890" />
              <mxPoint x="190" y="1890" />
            </Array>
          </mxGeometry>
        </mxCell>
        <mxCell id="PYUSAe0y5DwZYE7WgvPL-410" style="edgeStyle=orthogonalEdgeStyle;rounded=0;orthogonalLoop=1;jettySize=auto;html=1;entryX=0;entryY=0.5;entryDx=0;entryDy=0;" edge="1" parent="1" source="PYUSAe0y5DwZYE7WgvPL-354" target="PYUSAe0y5DwZYE7WgvPL-359">
          <mxGeometry relative="1" as="geometry" />
        </mxCell>
        <mxCell id="PYUSAe0y5DwZYE7WgvPL-411" style="edgeStyle=orthogonalEdgeStyle;rounded=0;orthogonalLoop=1;jettySize=auto;html=1;entryX=0;entryY=0.5;entryDx=0;entryDy=0;" edge="1" parent="1" source="PYUSAe0y5DwZYE7WgvPL-354" target="PYUSAe0y5DwZYE7WgvPL-360">
          <mxGeometry relative="1" as="geometry">
            <Array as="points">
              <mxPoint x="-35" y="1966" />
            </Array>
          </mxGeometry>
        </mxCell>
        <mxCell id="PYUSAe0y5DwZYE7WgvPL-354" value="Actor" style="shape=umlActor;verticalLabelPosition=bottom;verticalAlign=top;html=1;" vertex="1" parent="1">
          <mxGeometry x="-50" y="1880" width="30" height="60" as="geometry" />
        </mxCell>
        <mxCell id="PYUSAe0y5DwZYE7WgvPL-377" value="中间层重启" style="swimlane;html=1;childLayout=stackLayout;startSize=20;rounded=0;shadow=0;comic=0;labelBackgroundColor=none;strokeWidth=1;fontFamily=Verdana;fontSize=12;align=center;" vertex="1" parent="1">
          <mxGeometry x="45" y="1120" width="820" height="620" as="geometry" />
        </mxCell>
        <mxCell id="PYUSAe0y5DwZYE7WgvPL-378" value="算法" style="swimlane;html=1;startSize=20;" vertex="1" parent="PYUSAe0y5DwZYE7WgvPL-377">
          <mxGeometry y="20" width="320" height="600" as="geometry" />
        </mxCell>
        <mxCell id="PYUSAe0y5DwZYE7WgvPL-379" value="正常流程" style="rounded=0;whiteSpace=wrap;html=1;shadow=0;comic=0;labelBackgroundColor=none;strokeWidth=1;fontFamily=Verdana;fontSize=12;align=center;arcSize=50;" vertex="1" parent="PYUSAe0y5DwZYE7WgvPL-378">
          <mxGeometry x="111" y="510" width="115" height="50" as="geometry" />
        </mxCell>
        <mxCell id="PYUSAe0y5DwZYE7WgvPL-380" value="中间层" style="swimlane;html=1;startSize=20;" vertex="1" parent="PYUSAe0y5DwZYE7WgvPL-377">
          <mxGeometry x="320" y="20" width="250" height="600" as="geometry" />
        </mxCell>
        <mxCell id="PYUSAe0y5DwZYE7WgvPL-389" style="edgeStyle=orthogonalEdgeStyle;rounded=0;orthogonalLoop=1;jettySize=auto;html=1;exitX=0.5;exitY=1;exitDx=0;exitDy=0;entryX=0.5;entryY=0;entryDx=0;entryDy=0;" edge="1" parent="PYUSAe0y5DwZYE7WgvPL-380" source="PYUSAe0y5DwZYE7WgvPL-381" target="PYUSAe0y5DwZYE7WgvPL-387">
          <mxGeometry relative="1" as="geometry" />
        </mxCell>
        <mxCell id="PYUSAe0y5DwZYE7WgvPL-381" value="启动" style="ellipse;whiteSpace=wrap;html=1;rounded=0;shadow=0;comic=0;labelBackgroundColor=none;strokeWidth=1;fontFamily=Verdana;fontSize=12;align=center;fillColor=#d5e8d4;strokeColor=#82b366;" vertex="1" parent="PYUSAe0y5DwZYE7WgvPL-380">
          <mxGeometry x="105.5" y="50" width="40" height="40" as="geometry" />
        </mxCell>
        <mxCell id="PYUSAe0y5DwZYE7WgvPL-387" value="查询MSTC 是否准备完毕" style="rounded=1;whiteSpace=wrap;html=1;shadow=0;comic=0;labelBackgroundColor=none;strokeWidth=1;fontFamily=Verdana;fontSize=12;align=center;arcSize=50;" vertex="1" parent="PYUSAe0y5DwZYE7WgvPL-380">
          <mxGeometry x="75" y="140" width="100" height="30" as="geometry" />
        </mxCell>
        <mxCell id="PYUSAe0y5DwZYE7WgvPL-396" style="edgeStyle=orthogonalEdgeStyle;rounded=0;orthogonalLoop=1;jettySize=auto;html=1;entryX=0.5;entryY=0;entryDx=0;entryDy=0;" edge="1" parent="PYUSAe0y5DwZYE7WgvPL-380" source="PYUSAe0y5DwZYE7WgvPL-390" target="PYUSAe0y5DwZYE7WgvPL-395">
          <mxGeometry relative="1" as="geometry" />
        </mxCell>
        <mxCell id="PYUSAe0y5DwZYE7WgvPL-390" value="LOOP" style="shape=umlFrame;whiteSpace=wrap;html=1;pointerEvents=0;" vertex="1" parent="PYUSAe0y5DwZYE7WgvPL-380">
          <mxGeometry x="13" y="210" width="224" height="100" as="geometry" />
        </mxCell>
        <mxCell id="PYUSAe0y5DwZYE7WgvPL-391" value="等待拉取数据" style="rounded=0;whiteSpace=wrap;html=1;shadow=0;comic=0;labelBackgroundColor=none;strokeWidth=1;fontFamily=Verdana;fontSize=12;align=center;arcSize=50;" vertex="1" parent="PYUSAe0y5DwZYE7WgvPL-380">
          <mxGeometry x="75" y="245" width="112.5" height="30" as="geometry" />
        </mxCell>
        <mxCell id="PYUSAe0y5DwZYE7WgvPL-395" value="启动成功" style="rounded=1;whiteSpace=wrap;html=1;shadow=0;comic=0;labelBackgroundColor=none;strokeWidth=1;fontFamily=Verdana;fontSize=12;align=center;arcSize=50;" vertex="1" parent="PYUSAe0y5DwZYE7WgvPL-380">
          <mxGeometry x="75" y="410" width="100" height="30" as="geometry" />
        </mxCell>
        <mxCell id="PYUSAe0y5DwZYE7WgvPL-382" value="MSTC" style="swimlane;html=1;startSize=20;" vertex="1" parent="PYUSAe0y5DwZYE7WgvPL-377">
          <mxGeometry x="570" y="20" width="250" height="600" as="geometry" />
        </mxCell>
        <mxCell id="PYUSAe0y5DwZYE7WgvPL-388" value="自检" style="rounded=0;whiteSpace=wrap;html=1;shadow=0;comic=0;labelBackgroundColor=none;strokeWidth=1;fontFamily=Verdana;fontSize=12;align=center;arcSize=50;" vertex="1" parent="PYUSAe0y5DwZYE7WgvPL-382">
          <mxGeometry x="68.75" y="210" width="112.5" height="30" as="geometry" />
        </mxCell>
        <mxCell id="PYUSAe0y5DwZYE7WgvPL-392" style="edgeStyle=orthogonalEdgeStyle;rounded=0;orthogonalLoop=1;jettySize=auto;html=1;exitX=1;exitY=0.5;exitDx=0;exitDy=0;entryX=0.5;entryY=0;entryDx=0;entryDy=0;" edge="1" parent="PYUSAe0y5DwZYE7WgvPL-377" source="PYUSAe0y5DwZYE7WgvPL-387" target="PYUSAe0y5DwZYE7WgvPL-388">
          <mxGeometry relative="1" as="geometry" />
        </mxCell>
        <mxCell id="PYUSAe0y5DwZYE7WgvPL-394" style="edgeStyle=orthogonalEdgeStyle;rounded=0;orthogonalLoop=1;jettySize=auto;html=1;exitX=0.5;exitY=1;exitDx=0;exitDy=0;entryX=1.002;entryY=0.522;entryDx=0;entryDy=0;entryPerimeter=0;" edge="1" parent="PYUSAe0y5DwZYE7WgvPL-377" source="PYUSAe0y5DwZYE7WgvPL-388" target="PYUSAe0y5DwZYE7WgvPL-390">
          <mxGeometry relative="1" as="geometry" />
        </mxCell>
        <mxCell id="PYUSAe0y5DwZYE7WgvPL-397" style="edgeStyle=orthogonalEdgeStyle;rounded=0;orthogonalLoop=1;jettySize=auto;html=1;exitX=0.5;exitY=1;exitDx=0;exitDy=0;entryX=0.5;entryY=0;entryDx=0;entryDy=0;" edge="1" parent="PYUSAe0y5DwZYE7WgvPL-377" source="PYUSAe0y5DwZYE7WgvPL-395" target="PYUSAe0y5DwZYE7WgvPL-379">
          <mxGeometry relative="1" as="geometry" />
        </mxCell>
        <mxCell id="PYUSAe0y5DwZYE7WgvPL-384" style="edgeStyle=orthogonalEdgeStyle;rounded=0;orthogonalLoop=1;jettySize=auto;html=1;entryX=0;entryY=0.5;entryDx=0;entryDy=0;" edge="1" parent="1" source="PYUSAe0y5DwZYE7WgvPL-385" target="PYUSAe0y5DwZYE7WgvPL-381">
          <mxGeometry relative="1" as="geometry" />
        </mxCell>
        <mxCell id="PYUSAe0y5DwZYE7WgvPL-385" value="Actor" style="shape=umlActor;verticalLabelPosition=bottom;verticalAlign=top;html=1;" vertex="1" parent="1">
          <mxGeometry x="-20" y="1180" width="30" height="60" as="geometry" />
        </mxCell>
      </root>
    </mxGraphModel>
  </diagram>
</mxfile>
